<?xml version="1.0" encoding="utf-8"?>
<!-- Generator: Adobe Illustrator 24.1.2, SVG Export Plug-In . SVG Version: 6.00 Build 0)  -->
<svg version="1.1" id="Layer_1" xmlns="http://www.w3.org/2000/svg" xmlns:xlink="http://www.w3.org/1999/xlink" x="0px" y="0px"
	 viewBox="0 0 48 48" style="enable-background:new 0 0 48 48;" xml:space="preserve">
<style type="text/css">
	.st0{fill:#42A5F5;}
	.st1{fill:#E3F2FD;}
</style>
<path class="st0" d="M24,2l4.5,5L35,5l1.5,6.5L43,13l-2,6.5l5,4.5l-5,4.5l2,6.5l-6.5,1.5L35,43l-6.5-2L24,46l-4.5-5L13,43l-1.5-6.5
	L5,35l2-6.5L2,24l5-4.5L5,13l6.5-1.5L13,5l6.5,2L24,2z"/>
<path class="st1" d="M34.6,14.6L21,28.2l-5.6-5.6l-2.8,2.8l8.4,8.4l16.4-16.4L34.6,14.6z"/>
</svg>